<?xml version="1.0" encoding="UTF-8"?><svg id="Calque_1" xmlns="http://www.w3.org/2000/svg" viewBox="0 0 123.82 116.81"><defs><style>.cls-1{fill:#ffec00;}</style></defs><path class="cls-1" d="M95.87,15.3c-2.2-2.57-4.69-4.88-7.43-6.9-2.18-1.6-4.52-3-7-4.17-3.09-1.49-6.39-2.6-9.83-3.32-2.87-.6-5.85-.91-8.9-.91-3.72,0-7.34,.46-10.8,1.35-.86,.21-1.71,.46-2.56,.74C31.8,7.73,19.11,24.18,19.11,43.6c0,2.81,.27,5.56,.78,8.23,1.05-15.62,13.74-28.05,29.46-28.7v9.84c-10.99,.68-19.71,9.8-19.71,20.96,0,3.98,1.11,7.71,3.04,10.87l16.67-16.86v14.41l-9.48,9.58c2.8,1.69,6.03,2.73,9.48,2.94v10.24c.85,.27,1.7,.51,2.56,.74,3.46,.88,7.08,1.35,10.8,1.35,3.05,0,6.03-.32,8.9-.92,3.44-.71,6.74-1.83,9.83-3.31,14.71-7,24.86-22,24.86-39.37,0-10.8-3.93-20.68-10.43-28.3Zm-14.43,38.63c0,8.91-3.77,16.93-9.83,22.55-5.2,4.85-12.09,7.92-19.7,8.23v-9.84c11-.66,19.7-9.78,19.7-20.94,0-4.03-1.13-7.78-3.08-10.97-1.79-2.92-4.28-5.36-7.23-7.11-2.78-1.65-5.98-2.67-9.39-2.88v-9.84c6.11,.25,11.77,2.28,16.44,5.59l3.26-3.3,9.83-9.94V53.93Z"/><polygon class="cls-1" points="10.01 100.78 4.68 100.78 4.68 99.31 9.16 99.31 9.16 97.1 4.68 97.1 4.68 95.77 9.92 95.77 9.92 93.46 1.59 93.46 1.59 103.09 10.01 103.09 10.01 100.78"/><path class="cls-1" d="M13.42,103.11c.57,.1,1.19,.15,1.85,.15,.81,0,1.54-.11,2.18-.34,.64-.23,1.14-.59,1.51-1.08,.37-.5,.55-1.14,.55-1.93,0-.45-.08-.83-.24-1.13-.16-.31-.37-.57-.64-.78-.27-.21-.57-.38-.91-.51-.34-.13-.69-.24-1.05-.31-.36-.08-.71-.15-1.05-.22-.34-.06-.64-.13-.91-.21-.27-.07-.49-.17-.64-.28-.16-.11-.24-.26-.24-.43,0-.11,.05-.22,.14-.31,.09-.1,.24-.17,.43-.23,.19-.06,.43-.08,.71-.08,.3,0,.54,.05,.72,.14,.18,.09,.31,.21,.4,.36,.08,.15,.13,.31,.13,.48v.06h2.9v-.17c0-.51-.13-.96-.35-1.33-.22-.37-.53-.68-.92-.92-.39-.24-.84-.42-1.35-.54-.51-.12-1.05-.17-1.63-.17s-1.11,.06-1.63,.17-.98,.29-1.39,.53c-.41,.24-.73,.56-.96,.95-.23,.39-.35,.87-.35,1.43,0,.47,.08,.87,.24,1.2,.16,.33,.37,.61,.64,.83,.27,.22,.57,.4,.91,.54,.34,.14,.69,.25,1.05,.34,.36,.09,.71,.17,1.05,.23s.64,.14,.91,.21c.27,.08,.48,.16,.64,.27,.16,.1,.24,.24,.24,.42,0,.12-.03,.22-.08,.3s-.13,.14-.23,.19c-.1,.05-.21,.08-.32,.11-.12,.02-.24,.04-.36,.04s-.25,0-.36,0c-.3,0-.57-.03-.81-.08-.24-.05-.42-.15-.55-.3-.13-.15-.2-.36-.2-.64v-.09s0-.07,.01-.1h-2.93s-.01,.07-.01,.1v.08c0,.64,.12,1.18,.37,1.6,.25,.42,.59,.76,1.02,.99,.43,.24,.94,.41,1.51,.5Z"/><path class="cls-1" d="M28.74,95.01c-.27-.49-.63-.87-1.09-1.14-.46-.28-1-.41-1.6-.41h-5.69v9.63h3.1v-3.11h2.59c.59,0,1.12-.14,1.59-.41,.46-.27,.82-.65,1.09-1.14,.26-.49,.4-1.06,.4-1.73s-.13-1.2-.39-1.69Zm-2.99,2.46c-.17,.17-.41,.26-.74,.26h-1.55v-1.99h1.55c.23,0,.41,.04,.55,.11,.15,.07,.26,.18,.33,.33,.07,.14,.1,.33,.1,.55,0,.33-.08,.58-.24,.74Z"/><path class="cls-1" d="M39.15,95.51c-.41-.73-1-1.29-1.78-1.66-.77-.38-1.71-.56-2.81-.56s-2.03,.18-2.8,.56c-.78,.37-1.37,.93-1.78,1.66-.41,.74-.62,1.66-.62,2.76s.21,2.01,.62,2.75c.41,.74,1,1.3,1.78,1.68,.77,.37,1.71,.56,2.8,.56s2.04-.19,2.81-.56c.78-.38,1.37-.94,1.78-1.68,.41-.74,.62-1.66,.62-2.75s-.21-2.02-.62-2.76Zm-2.55,3.21c0,.33-.04,.63-.12,.9-.09,.28-.22,.51-.39,.71-.17,.2-.39,.35-.64,.46-.26,.1-.56,.16-.89,.16s-.63-.06-.89-.16c-.26-.11-.47-.26-.64-.46-.17-.2-.29-.43-.38-.71-.08-.27-.12-.57-.12-.9v-.9c0-.32,.04-.62,.12-.9,.09-.27,.21-.51,.38-.71,.17-.19,.38-.34,.64-.45,.26-.11,.55-.16,.89-.16s.63,.05,.89,.16c.25,.11,.47,.26,.64,.45,.17,.2,.3,.44,.39,.71,.08,.28,.12,.58,.12,.9v.9Z"/><rect class="cls-1" x="40.73" y="93.46" width="3.09" height="9.63"/><path class="cls-1" d="M52.87,99.34c.5-.29,.89-.68,1.18-1.16s.43-1.03,.43-1.64c0-.54-.12-1.05-.36-1.52-.25-.46-.61-.84-1.09-1.13-.48-.29-1.08-.43-1.8-.43h-6.03v9.63h3.09v-3.24h1.53l1.47,3.24h3.47l-1.89-3.75Zm-1.79-1.92c-.17,.2-.38,.29-.62,.29h-2.17v-2.06h2.17c.17,0,.32,.05,.45,.14,.13,.09,.23,.21,.31,.35,.07,.15,.11,.33,.11,.52,0,.32-.08,.57-.25,.76Z"/><path class="cls-1" d="M60.1,96.89c.09-.27,.23-.5,.41-.7,.18-.2,.41-.34,.69-.44,.28-.1,.6-.15,.97-.15,.24,0,.47,.03,.69,.09,.22,.06,.41,.15,.58,.27,.17,.12,.3,.26,.4,.43s.15,.35,.15,.56h2.96c0-.61-.13-1.14-.38-1.6-.25-.46-.6-.84-1.06-1.14-.45-.3-.98-.53-1.57-.69-.59-.15-1.22-.23-1.9-.23-1.11,0-2.06,.19-2.84,.56-.78,.37-1.38,.93-1.79,1.67-.41,.74-.62,1.66-.62,2.76,0,1.64,.4,2.88,1.2,3.72,.8,.84,2,1.26,3.6,1.26,.5,0,.95-.04,1.36-.13,.41-.08,.79-.21,1.13-.38s.66-.37,.95-.62l.31,.95h1.6v-5.38h-5.14v1.96h2.18v.06c0,.24-.08,.46-.25,.64s-.39,.33-.66,.43-.58,.15-.9,.15c-.48,0-.89-.09-1.23-.27-.33-.18-.58-.43-.74-.76-.16-.33-.24-.73-.24-1.2v-.9c0-.35,.05-.67,.14-.94Z"/><path class="cls-1" d="M84.58,93.46h-3.6l-3.4,9.32-1.74-3.44c.5-.29,.89-.68,1.18-1.16,.29-.48,.43-1.03,.43-1.64,0-.54-.12-1.05-.36-1.52-.24-.46-.6-.84-1.08-1.13-.48-.29-1.08-.43-1.8-.43h-6.04v9.63h3.1v-3.24h1.52l1.47,3.24h6.37l.41-1.36h3.37l.41,1.36h3.27l-3.51-9.63Zm-10.53,3.96c-.17,.2-.37,.29-.61,.29h-2.17v-2.06h2.17c.16,0,.31,.05,.44,.14,.14,.09,.24,.21,.31,.35,.08,.15,.11,.33,.11,.52,0,.32-.08,.57-.25,.76Zm7.63,2.15l.47-1.54c.06-.2,.13-.42,.19-.65,.07-.23,.13-.45,.19-.66,.06-.22,.11-.41,.15-.58h.11c.04,.13,.08,.29,.12,.46,.05,.17,.1,.35,.14,.52,.05,.18,.1,.35,.15,.51,.04,.16,.08,.29,.12,.4l.46,1.54h-2.1Z"/><path class="cls-1" d="M96.93,95.01c-.26-.49-.62-.87-1.09-1.14-.46-.28-.99-.41-1.6-.41h-5.68v9.63h3.09v-3.11h2.59c.6,0,1.13-.14,1.59-.41,.46-.27,.83-.65,1.09-1.14,.27-.49,.4-1.06,.4-1.73s-.13-1.2-.39-1.69Zm-2.99,2.46c-.16,.17-.41,.26-.74,.26h-1.55v-1.99h1.55c.23,0,.41,.04,.56,.11,.14,.07,.25,.18,.32,.33,.07,.14,.11,.33,.11,.55,0,.33-.09,.58-.25,.74Z"/><polygon class="cls-1" points="107.55 103.09 107.55 93.46 104.46 93.46 104.46 96.97 101.05 96.97 101.05 93.46 97.96 93.46 97.96 103.09 101.05 103.09 101.05 99.43 104.46 99.43 104.46 103.09 107.55 103.09"/><rect class="cls-1" x="108.92" y="93.46" width="3.09" height="9.63"/><polygon class="cls-1" points="120.16 103.09 123.82 103.09 120.29 97.42 123.75 93.46 119.91 93.46 116.48 97.57 116.48 93.46 113.39 93.46 113.39 103.09 116.48 103.09 116.48 101.07 118.12 99.49 120.16 103.09"/><path class="cls-1" d="M6.39,110.45c-.06,.2-.11,.41-.16,.62s-.09,.42-.13,.61c-.04,.19-.07,.35-.08,.49h-.1c-.03-.16-.07-.34-.13-.55-.05-.2-.1-.41-.15-.62-.05-.21-.1-.39-.14-.54l-1.18-4.21H1.6v8.23h1.68v-3.9c0-.26,0-.55-.01-.87,0-.32-.02-.62-.02-.92,0-.3-.02-.56-.02-.77h.1c.05,.18,.1,.39,.15,.63,.05,.24,.11,.48,.17,.71,.06,.23,.11,.43,.16,.59l1.3,4.54h1.56l1.28-4.55c.06-.19,.12-.42,.19-.68,.07-.26,.13-.51,.19-.75,.06-.24,.1-.4,.11-.49h.1c0,.08,0,.26-.02,.53-.01,.27-.02,.59-.02,.95,0,.36,0,.73,0,1.09v3.9h1.76v-8.23h-2.68l-1.18,4.2Z"/><path class="cls-1" d="M16.82,106.25h-2.21l-3.17,8.23h1.85l.59-1.62h3.59l.58,1.62h1.94l-3.17-8.23Zm-2.43,5.17l.74-2.03c.04-.12,.09-.27,.15-.46,.07-.19,.13-.39,.19-.59,.07-.2,.12-.38,.16-.53h.07c.04,.12,.08,.25,.13,.4,.04,.15,.09,.3,.14,.45,.04,.15,.09,.29,.13,.41,.05,.13,.09,.23,.12,.32l.73,2.03h-2.56Z"/><path class="cls-1" d="M27.11,110.38c-.24-.18-.51-.33-.82-.45s-.62-.22-.94-.31c-.32-.09-.63-.17-.94-.24-.3-.07-.58-.15-.82-.25-.24-.09-.44-.2-.58-.32s-.21-.28-.21-.47c0-.17,.06-.31,.19-.44s.3-.22,.54-.28c.24-.06,.52-.1,.86-.1,.31,0,.58,.04,.82,.13s.41,.21,.54,.36c.13,.15,.19,.34,.19,.55v.1h1.74v-.14c0-.42-.09-.78-.26-1.08-.17-.3-.41-.56-.71-.76s-.66-.35-1.06-.44c-.4-.09-.82-.14-1.27-.14-.48,0-.92,.05-1.33,.14-.41,.09-.77,.23-1.08,.43-.31,.19-.55,.44-.73,.73-.17,.3-.26,.65-.26,1.06,0,.38,.07,.71,.22,.98,.14,.27,.34,.5,.58,.67,.24,.18,.51,.33,.82,.45,.3,.12,.62,.23,.94,.31,.32,.08,.63,.17,.94,.25,.3,.08,.58,.17,.82,.26,.24,.1,.44,.21,.58,.35,.14,.14,.21,.31,.21,.53,0,.12-.02,.23-.07,.32-.04,.1-.11,.18-.2,.25-.09,.07-.21,.13-.35,.19s-.3,.09-.48,.12-.39,.04-.62,.04c-.36,0-.68-.04-.95-.13s-.48-.22-.62-.4c-.14-.18-.21-.39-.21-.65v-.11s0-.07,.01-.1h-1.78s-.01,.06-.01,.1v.13c0,.46,.09,.86,.28,1.18,.19,.32,.45,.59,.78,.8s.71,.37,1.15,.46,.89,.14,1.37,.14c.68,0,1.28-.09,1.81-.26,.53-.18,.94-.46,1.25-.84,.3-.38,.46-.89,.46-1.52,0-.37-.07-.68-.22-.95-.14-.26-.34-.49-.58-.67Z"/><polygon class="cls-1" points="28.93 107.75 31.57 107.75 31.57 114.48 33.37 114.48 33.37 107.75 36.03 107.75 36.03 106.25 28.93 106.25 28.93 107.75"/><polygon class="cls-1" points="39.25 111 43.48 111 43.48 109.55 39.25 109.55 39.25 107.71 44.03 107.71 44.03 106.25 37.45 106.25 37.45 114.48 44.1 114.48 44.1 113 39.25 113 39.25 111"/><path class="cls-1" d="M51.7,111.18c.46-.22,.81-.53,1.05-.94,.24-.42,.36-.89,.36-1.43,0-.5-.1-.95-.3-1.33-.2-.39-.51-.69-.91-.91-.4-.22-.91-.32-1.52-.32h-4.51v8.23h1.79v-3h2.29l1.45,3h1.98l-1.68-3.3Zm-.72-1.45c-.2,.22-.48,.33-.84,.33h-2.48v-2.36h2.48c.25,0,.46,.04,.63,.13,.16,.09,.29,.22,.38,.39,.09,.17,.13,.38,.13,.62,0,.37-.1,.67-.3,.89Z"/><path class="cls-1" d="M64.97,107.97c-.33-.63-.81-1.1-1.44-1.41-.63-.3-1.39-.46-2.28-.46s-1.62,.16-2.25,.46c-.63,.31-1.12,.78-1.45,1.41-.34,.63-.51,1.42-.51,2.39s.17,1.75,.51,2.38c.33,.63,.82,1.1,1.45,1.41,.63,.32,1.38,.47,2.25,.47s1.65-.15,2.28-.47c.63-.31,1.11-.78,1.44-1.41,.34-.63,.51-1.43,.51-2.38s-.17-1.76-.51-2.39Zm-1.33,2.58c0,.42-.05,.79-.15,1.11-.11,.33-.26,.6-.46,.83-.2,.22-.45,.39-.74,.5-.3,.11-.64,.17-1.04,.17s-.72-.06-1.02-.17c-.29-.11-.54-.28-.74-.5-.2-.23-.35-.5-.45-.83-.1-.32-.15-.69-.15-1.11v-.37c0-.42,.05-.8,.15-1.13,.1-.32,.25-.6,.45-.82,.2-.22,.45-.38,.74-.5,.3-.11,.64-.16,1.02-.16,.4,0,.74,.05,1.04,.16,.29,.12,.54,.28,.74,.5,.2,.22,.35,.5,.46,.82,.1,.33,.15,.71,.15,1.13v.37Z"/><polygon class="cls-1" points="67.14 114.48 68.93 114.48 68.93 111.2 72.76 111.2 72.76 109.75 68.93 109.75 68.93 107.71 73.21 107.71 73.21 106.25 67.14 106.25 67.14 114.48"/><path class="cls-1" d="M83.99,108.04c-.33-.6-.79-1.05-1.39-1.35-.6-.3-1.33-.44-2.18-.44h-3.36v8.23h3.36c.85,0,1.58-.15,2.18-.45,.6-.29,1.06-.74,1.39-1.35,.32-.61,.48-1.38,.48-2.32s-.16-1.72-.48-2.32Zm-1.36,2.5c0,.41-.05,.77-.15,1.08-.09,.3-.24,.56-.42,.76-.18,.21-.41,.36-.69,.47-.29,.1-.6,.15-.96,.15h-1.56v-5.29h1.56c.36,0,.67,.05,.96,.16,.28,.11,.51,.27,.69,.47,.18,.2,.33,.46,.42,.77,.1,.31,.15,.66,.15,1.07v.36Z"/><polygon class="cls-1" points="87.94 111 92.16 111 92.16 109.55 87.94 109.55 87.94 107.71 92.71 107.71 92.71 106.25 86.14 106.25 86.14 114.48 92.79 114.48 92.79 113 87.94 113 87.94 111"/><path class="cls-1" d="M100.48,110.38c-.24-.18-.51-.33-.82-.45-.3-.12-.62-.22-.94-.31-.32-.09-.63-.17-.94-.24-.3-.07-.58-.15-.82-.25s-.44-.2-.58-.32-.21-.28-.21-.47c0-.17,.06-.31,.19-.44,.12-.12,.3-.22,.54-.28,.24-.06,.52-.1,.86-.1,.31,0,.58,.04,.82,.13,.23,.09,.41,.21,.54,.36,.13,.15,.19,.34,.19,.55v.1h1.74v-.14c0-.42-.09-.78-.26-1.08s-.41-.56-.71-.76c-.3-.2-.66-.35-1.06-.44-.4-.09-.82-.14-1.27-.14-.48,0-.92,.05-1.33,.14-.41,.09-.77,.23-1.08,.43-.31,.19-.55,.44-.73,.73-.17,.3-.26,.65-.26,1.06,0,.38,.07,.71,.22,.98,.14,.27,.34,.5,.58,.67,.24,.18,.51,.33,.82,.45,.3,.12,.62,.23,.94,.31,.32,.08,.63,.17,.94,.25,.3,.08,.58,.17,.82,.26,.24,.1,.44,.21,.58,.35,.14,.14,.21,.31,.21,.53,0,.12-.02,.23-.07,.32-.04,.1-.11,.18-.2,.25-.09,.07-.21,.13-.35,.19-.14,.05-.3,.09-.48,.12s-.39,.04-.62,.04c-.36,0-.68-.04-.95-.13-.27-.09-.48-.22-.62-.4-.14-.18-.21-.39-.21-.65v-.11s0-.07,.01-.1h-1.78s-.01,.06-.01,.1v.13c0,.46,.09,.86,.28,1.18,.19,.32,.45,.59,.78,.8s.71,.37,1.15,.46,.89,.14,1.37,.14c.68,0,1.28-.09,1.81-.26,.53-.18,.94-.46,1.25-.84s.46-.89,.46-1.52c0-.37-.07-.68-.22-.95-.14-.26-.34-.49-.58-.67Z"/><rect class="cls-1" x="102.91" y="106.25" width="1.79" height="8.23"/><path class="cls-1" d="M108.45,109.04c.1-.33,.26-.6,.46-.82s.46-.38,.77-.49c.31-.11,.68-.16,1.09-.16,.27,0,.53,.03,.78,.1,.25,.06,.47,.16,.66,.29,.19,.13,.34,.29,.45,.48,.11,.19,.16,.41,.16,.66h1.81c0-.51-.1-.95-.31-1.33s-.49-.68-.85-.93c-.36-.25-.78-.43-1.25-.55-.47-.12-.98-.18-1.51-.18-.9,0-1.66,.15-2.3,.46-.64,.31-1.13,.78-1.46,1.4s-.5,1.43-.5,2.39c0,1.46,.35,2.53,1.05,3.22,.7,.69,1.7,1.04,2.99,1.04,.42,0,.79-.04,1.13-.11,.34-.08,.64-.19,.92-.34,.28-.15,.53-.34,.77-.58l.16,.89h1.18v-4.45h-4.24v1.37h2.46v.08c0,.36-.09,.66-.28,.91-.19,.25-.45,.44-.78,.57-.33,.13-.71,.2-1.15,.2-.52,0-.96-.09-1.31-.28-.35-.19-.62-.47-.79-.86s-.26-.88-.26-1.48v-.36c0-.43,.05-.81,.16-1.14Z"/><path class="cls-1" d="M122.11,110.69v.76h-.06c-.02-.06-.07-.13-.13-.23-.06-.1-.13-.19-.2-.29-.07-.1-.13-.18-.18-.23l-3.31-4.44h-1.64v8.23h1.69v-5.23h.06c.04,.07,.1,.18,.19,.31,.09,.14,.17,.26,.25,.37l3.38,4.55h1.64v-8.23h-1.69v4.44Z"/></svg>